<mxfile host="app.diagrams.net" modified="2020-12-03T21:06:53.784Z" agent="5.0 (Windows NT 10.0; Win64; x64) AppleWebKit/537.36 (KHTML, like Gecko) Chrome/87.0.4280.67 Safari/537.36 Edg/87.0.664.52" etag="9Q6YqoWOa8R-OxLU2RrT" version="13.10.6" type="github">
  <diagram id="C5RBs43oDa-KdzZeNtuy" name="Page-1">
    <mxGraphModel dx="782" dy="738" grid="0" gridSize="10" guides="1" tooltips="1" connect="1" arrows="1" fold="1" page="1" pageScale="1" pageWidth="827" pageHeight="1169" math="0" shadow="0">
      <root>
        <mxCell id="WIyWlLk6GJQsqaUBKTNV-0" />
        <mxCell id="WIyWlLk6GJQsqaUBKTNV-1" parent="WIyWlLk6GJQsqaUBKTNV-0" />
        <mxCell id="zC0u1RPXHcuV_eqlMisw-5" value="&lt;&lt;Interface&gt;&gt;&#xa;Subject" style="swimlane;fontStyle=0;childLayout=stackLayout;horizontal=1;startSize=26;fillColor=none;horizontalStack=0;resizeParent=1;resizeParentMax=0;resizeLast=0;collapsible=1;marginBottom=0;" parent="WIyWlLk6GJQsqaUBKTNV-1" vertex="1">
          <mxGeometry x="70" y="164" width="140" height="182" as="geometry" />
        </mxCell>
        <mxCell id="zC0u1RPXHcuV_eqlMisw-6" value="addFriend()" style="text;strokeColor=none;fillColor=none;align=left;verticalAlign=top;spacingLeft=4;spacingRight=4;overflow=hidden;rotatable=0;points=[[0,0.5],[1,0.5]];portConstraint=eastwest;" parent="zC0u1RPXHcuV_eqlMisw-5" vertex="1">
          <mxGeometry y="26" width="140" height="26" as="geometry" />
        </mxCell>
        <mxCell id="zC0u1RPXHcuV_eqlMisw-7" value="removeFriend()" style="text;strokeColor=none;fillColor=none;align=left;verticalAlign=top;spacingLeft=4;spacingRight=4;overflow=hidden;rotatable=0;points=[[0,0.5],[1,0.5]];portConstraint=eastwest;" parent="zC0u1RPXHcuV_eqlMisw-5" vertex="1">
          <mxGeometry y="52" width="140" height="26" as="geometry" />
        </mxCell>
        <mxCell id="6yFdtxs-iotZIOdewuUa-7" value="addBestFriend()" style="text;strokeColor=none;fillColor=none;align=left;verticalAlign=top;spacingLeft=4;spacingRight=4;overflow=hidden;rotatable=0;points=[[0,0.5],[1,0.5]];portConstraint=eastwest;" vertex="1" parent="zC0u1RPXHcuV_eqlMisw-5">
          <mxGeometry y="78" width="140" height="26" as="geometry" />
        </mxCell>
        <mxCell id="6yFdtxs-iotZIOdewuUa-8" value="removeBestFriend()" style="text;strokeColor=none;fillColor=none;align=left;verticalAlign=top;spacingLeft=4;spacingRight=4;overflow=hidden;rotatable=0;points=[[0,0.5],[1,0.5]];portConstraint=eastwest;" vertex="1" parent="zC0u1RPXHcuV_eqlMisw-5">
          <mxGeometry y="104" width="140" height="26" as="geometry" />
        </mxCell>
        <mxCell id="zC0u1RPXHcuV_eqlMisw-8" value="notifyFriends()" style="text;strokeColor=none;fillColor=none;align=left;verticalAlign=top;spacingLeft=4;spacingRight=4;overflow=hidden;rotatable=0;points=[[0,0.5],[1,0.5]];portConstraint=eastwest;" parent="zC0u1RPXHcuV_eqlMisw-5" vertex="1">
          <mxGeometry y="130" width="140" height="26" as="geometry" />
        </mxCell>
        <mxCell id="6yFdtxs-iotZIOdewuUa-4" value="notifyBestFriends()" style="text;strokeColor=none;fillColor=none;align=left;verticalAlign=top;spacingLeft=4;spacingRight=4;overflow=hidden;rotatable=0;points=[[0,0.5],[1,0.5]];portConstraint=eastwest;" vertex="1" parent="zC0u1RPXHcuV_eqlMisw-5">
          <mxGeometry y="156" width="140" height="26" as="geometry" />
        </mxCell>
        <mxCell id="zC0u1RPXHcuV_eqlMisw-13" value="&lt;&lt;Interface&gt;&gt;&#xa;Observer" style="swimlane;fontStyle=0;childLayout=stackLayout;horizontal=1;startSize=26;fillColor=none;horizontalStack=0;resizeParent=1;resizeParentMax=0;resizeLast=0;collapsible=1;marginBottom=0;" parent="WIyWlLk6GJQsqaUBKTNV-1" vertex="1">
          <mxGeometry x="330" y="200" width="140" height="52" as="geometry" />
        </mxCell>
        <mxCell id="zC0u1RPXHcuV_eqlMisw-14" value="update()" style="text;strokeColor=none;fillColor=none;align=left;verticalAlign=top;spacingLeft=4;spacingRight=4;overflow=hidden;rotatable=0;points=[[0,0.5],[1,0.5]];portConstraint=eastwest;" parent="zC0u1RPXHcuV_eqlMisw-13" vertex="1">
          <mxGeometry y="26" width="140" height="26" as="geometry" />
        </mxCell>
        <mxCell id="zC0u1RPXHcuV_eqlMisw-17" value="&lt;&lt;Interface&gt;&gt;&#xa;DisplayStatus" style="swimlane;fontStyle=0;childLayout=stackLayout;horizontal=1;startSize=26;fillColor=none;horizontalStack=0;resizeParent=1;resizeParentMax=0;resizeLast=0;collapsible=1;marginBottom=0;" parent="WIyWlLk6GJQsqaUBKTNV-1" vertex="1">
          <mxGeometry x="530" y="200" width="140" height="52" as="geometry" />
        </mxCell>
        <mxCell id="zC0u1RPXHcuV_eqlMisw-18" value="display()" style="text;strokeColor=none;fillColor=none;align=left;verticalAlign=top;spacingLeft=4;spacingRight=4;overflow=hidden;rotatable=0;points=[[0,0.5],[1,0.5]];portConstraint=eastwest;" parent="zC0u1RPXHcuV_eqlMisw-17" vertex="1">
          <mxGeometry y="26" width="140" height="26" as="geometry" />
        </mxCell>
        <mxCell id="zC0u1RPXHcuV_eqlMisw-19" value="Bob (best friend)" style="swimlane;fontStyle=0;childLayout=stackLayout;horizontal=1;startSize=26;fillColor=none;horizontalStack=0;resizeParent=1;resizeParentMax=0;resizeLast=0;collapsible=1;marginBottom=0;" parent="WIyWlLk6GJQsqaUBKTNV-1" vertex="1">
          <mxGeometry x="370" y="370" width="140" height="82" as="geometry" />
        </mxCell>
        <mxCell id="zC0u1RPXHcuV_eqlMisw-20" value="update()" style="text;strokeColor=none;fillColor=none;align=left;verticalAlign=top;spacingLeft=4;spacingRight=4;overflow=hidden;rotatable=0;points=[[0,0.5],[1,0.5]];portConstraint=eastwest;" parent="zC0u1RPXHcuV_eqlMisw-19" vertex="1">
          <mxGeometry y="26" width="140" height="26" as="geometry" />
        </mxCell>
        <mxCell id="zC0u1RPXHcuV_eqlMisw-21" value="display()" style="text;strokeColor=none;fillColor=none;align=left;verticalAlign=top;spacingLeft=4;spacingRight=4;overflow=hidden;rotatable=0;points=[[0,0.5],[1,0.5]];portConstraint=eastwest;" parent="zC0u1RPXHcuV_eqlMisw-19" vertex="1">
          <mxGeometry y="52" width="140" height="30" as="geometry" />
        </mxCell>
        <mxCell id="zC0u1RPXHcuV_eqlMisw-23" value="Person" style="swimlane;fontStyle=0;childLayout=stackLayout;horizontal=1;startSize=26;fillColor=none;horizontalStack=0;resizeParent=1;resizeParentMax=0;resizeLast=0;collapsible=1;marginBottom=0;" parent="WIyWlLk6GJQsqaUBKTNV-1" vertex="1">
          <mxGeometry x="60" y="443" width="210" height="294" as="geometry" />
        </mxCell>
        <mxCell id="zC0u1RPXHcuV_eqlMisw-24" value="addFriend()" style="text;strokeColor=none;fillColor=none;align=left;verticalAlign=top;spacingLeft=4;spacingRight=4;overflow=hidden;rotatable=0;points=[[0,0.5],[1,0.5]];portConstraint=eastwest;" parent="zC0u1RPXHcuV_eqlMisw-23" vertex="1">
          <mxGeometry y="26" width="210" height="26" as="geometry" />
        </mxCell>
        <mxCell id="zC0u1RPXHcuV_eqlMisw-25" value="addBestFriend()" style="text;strokeColor=none;fillColor=none;align=left;verticalAlign=top;spacingLeft=4;spacingRight=4;overflow=hidden;rotatable=0;points=[[0,0.5],[1,0.5]];portConstraint=eastwest;" parent="zC0u1RPXHcuV_eqlMisw-23" vertex="1">
          <mxGeometry y="52" width="210" height="26" as="geometry" />
        </mxCell>
        <mxCell id="zC0u1RPXHcuV_eqlMisw-26" value="removeFriend()&#xa;" style="text;strokeColor=none;fillColor=none;align=left;verticalAlign=top;spacingLeft=4;spacingRight=4;overflow=hidden;rotatable=0;points=[[0,0.5],[1,0.5]];portConstraint=eastwest;" parent="zC0u1RPXHcuV_eqlMisw-23" vertex="1">
          <mxGeometry y="78" width="210" height="28" as="geometry" />
        </mxCell>
        <mxCell id="6yFdtxs-iotZIOdewuUa-0" value="removeBestFriend()&#xa;" style="text;strokeColor=none;fillColor=none;align=left;verticalAlign=top;spacingLeft=4;spacingRight=4;overflow=hidden;rotatable=0;points=[[0,0.5],[1,0.5]];portConstraint=eastwest;" vertex="1" parent="zC0u1RPXHcuV_eqlMisw-23">
          <mxGeometry y="106" width="210" height="32" as="geometry" />
        </mxCell>
        <mxCell id="zC0u1RPXHcuV_eqlMisw-28" value="notifyFriends()" style="text;strokeColor=none;fillColor=none;align=left;verticalAlign=top;spacingLeft=4;spacingRight=4;overflow=hidden;rotatable=0;points=[[0,0.5],[1,0.5]];portConstraint=eastwest;" parent="zC0u1RPXHcuV_eqlMisw-23" vertex="1">
          <mxGeometry y="138" width="210" height="26" as="geometry" />
        </mxCell>
        <mxCell id="6yFdtxs-iotZIOdewuUa-1" value="notifyBestFriends()" style="text;strokeColor=none;fillColor=none;align=left;verticalAlign=top;spacingLeft=4;spacingRight=4;overflow=hidden;rotatable=0;points=[[0,0.5],[1,0.5]];portConstraint=eastwest;" vertex="1" parent="zC0u1RPXHcuV_eqlMisw-23">
          <mxGeometry y="164" width="210" height="26" as="geometry" />
        </mxCell>
        <mxCell id="zC0u1RPXHcuV_eqlMisw-29" value="statusUpdate()" style="text;strokeColor=none;fillColor=none;align=left;verticalAlign=top;spacingLeft=4;spacingRight=4;overflow=hidden;rotatable=0;points=[[0,0.5],[1,0.5]];portConstraint=eastwest;" parent="zC0u1RPXHcuV_eqlMisw-23" vertex="1">
          <mxGeometry y="190" width="210" height="26" as="geometry" />
        </mxCell>
        <mxCell id="zC0u1RPXHcuV_eqlMisw-60" value="statusUpdatePrivate()" style="text;strokeColor=none;fillColor=none;align=left;verticalAlign=top;spacingLeft=4;spacingRight=4;overflow=hidden;rotatable=0;points=[[0,0.5],[1,0.5]];portConstraint=eastwest;" parent="zC0u1RPXHcuV_eqlMisw-23" vertex="1">
          <mxGeometry y="216" width="210" height="26" as="geometry" />
        </mxCell>
        <mxCell id="6yFdtxs-iotZIOdewuUa-2" value="setStatus()" style="text;strokeColor=none;fillColor=none;align=left;verticalAlign=top;spacingLeft=4;spacingRight=4;overflow=hidden;rotatable=0;points=[[0,0.5],[1,0.5]];portConstraint=eastwest;" vertex="1" parent="zC0u1RPXHcuV_eqlMisw-23">
          <mxGeometry y="242" width="210" height="26" as="geometry" />
        </mxCell>
        <mxCell id="6yFdtxs-iotZIOdewuUa-3" value="setPrivateStatus()" style="text;strokeColor=none;fillColor=none;align=left;verticalAlign=top;spacingLeft=4;spacingRight=4;overflow=hidden;rotatable=0;points=[[0,0.5],[1,0.5]];portConstraint=eastwest;" vertex="1" parent="zC0u1RPXHcuV_eqlMisw-23">
          <mxGeometry y="268" width="210" height="26" as="geometry" />
        </mxCell>
        <mxCell id="zC0u1RPXHcuV_eqlMisw-30" value="Alice (acquaintance)" style="swimlane;fontStyle=0;childLayout=stackLayout;horizontal=1;startSize=26;fillColor=none;horizontalStack=0;resizeParent=1;resizeParentMax=0;resizeLast=0;collapsible=1;marginBottom=0;" parent="WIyWlLk6GJQsqaUBKTNV-1" vertex="1">
          <mxGeometry x="530" y="370" width="140" height="79" as="geometry" />
        </mxCell>
        <mxCell id="zC0u1RPXHcuV_eqlMisw-31" value="update()" style="text;strokeColor=none;fillColor=none;align=left;verticalAlign=top;spacingLeft=4;spacingRight=4;overflow=hidden;rotatable=0;points=[[0,0.5],[1,0.5]];portConstraint=eastwest;" parent="zC0u1RPXHcuV_eqlMisw-30" vertex="1">
          <mxGeometry y="26" width="140" height="26" as="geometry" />
        </mxCell>
        <mxCell id="zC0u1RPXHcuV_eqlMisw-32" value="display()" style="text;strokeColor=none;fillColor=none;align=left;verticalAlign=top;spacingLeft=4;spacingRight=4;overflow=hidden;rotatable=0;points=[[0,0.5],[1,0.5]];portConstraint=eastwest;" parent="zC0u1RPXHcuV_eqlMisw-30" vertex="1">
          <mxGeometry y="52" width="140" height="27" as="geometry" />
        </mxCell>
        <mxCell id="zC0u1RPXHcuV_eqlMisw-40" value="" style="endArrow=classic;html=1;entryX=0.702;entryY=1.154;entryDx=0;entryDy=0;entryPerimeter=0;dashed=1;dashPattern=1 4;exitX=0.5;exitY=0;exitDx=0;exitDy=0;" parent="WIyWlLk6GJQsqaUBKTNV-1" source="zC0u1RPXHcuV_eqlMisw-19" target="zC0u1RPXHcuV_eqlMisw-14" edge="1">
          <mxGeometry width="50" height="50" relative="1" as="geometry">
            <mxPoint x="480" y="440" as="sourcePoint" />
            <mxPoint x="460" y="260" as="targetPoint" />
            <Array as="points">
              <mxPoint x="428" y="320" />
            </Array>
          </mxGeometry>
        </mxCell>
        <mxCell id="zC0u1RPXHcuV_eqlMisw-41" value="" style="endArrow=classic;html=1;entryX=0.374;entryY=1.051;entryDx=0;entryDy=0;entryPerimeter=0;dashed=1;dashPattern=1 4;" parent="WIyWlLk6GJQsqaUBKTNV-1" target="zC0u1RPXHcuV_eqlMisw-18" edge="1">
          <mxGeometry width="50" height="50" relative="1" as="geometry">
            <mxPoint x="438" y="370" as="sourcePoint" />
            <mxPoint x="438.28" y="266.004" as="targetPoint" />
            <Array as="points">
              <mxPoint x="510" y="340" />
            </Array>
          </mxGeometry>
        </mxCell>
        <mxCell id="zC0u1RPXHcuV_eqlMisw-43" value="" style="endArrow=classic;html=1;dashed=1;dashPattern=1 4;exitX=0.5;exitY=0;exitDx=0;exitDy=0;" parent="WIyWlLk6GJQsqaUBKTNV-1" source="zC0u1RPXHcuV_eqlMisw-30" target="zC0u1RPXHcuV_eqlMisw-18" edge="1">
          <mxGeometry width="50" height="50" relative="1" as="geometry">
            <mxPoint x="448" y="380" as="sourcePoint" />
            <mxPoint x="592.3599999999999" y="263.326" as="targetPoint" />
            <Array as="points" />
          </mxGeometry>
        </mxCell>
        <mxCell id="zC0u1RPXHcuV_eqlMisw-45" value="" style="endArrow=classic;html=1;dashed=1;dashPattern=1 4;exitX=0.5;exitY=0;exitDx=0;exitDy=0;entryX=0.798;entryY=1.051;entryDx=0;entryDy=0;entryPerimeter=0;" parent="WIyWlLk6GJQsqaUBKTNV-1" source="zC0u1RPXHcuV_eqlMisw-30" target="zC0u1RPXHcuV_eqlMisw-14" edge="1">
          <mxGeometry width="50" height="50" relative="1" as="geometry">
            <mxPoint x="610" y="380" as="sourcePoint" />
            <mxPoint x="610" y="262" as="targetPoint" />
            <Array as="points" />
          </mxGeometry>
        </mxCell>
        <mxCell id="zC0u1RPXHcuV_eqlMisw-46" value="" style="endArrow=classic;html=1;entryX=0;entryY=0.5;entryDx=0;entryDy=0;exitX=1;exitY=0.25;exitDx=0;exitDy=0;" parent="WIyWlLk6GJQsqaUBKTNV-1" source="zC0u1RPXHcuV_eqlMisw-5" target="zC0u1RPXHcuV_eqlMisw-13" edge="1">
          <mxGeometry width="50" height="50" relative="1" as="geometry">
            <mxPoint x="480" y="440" as="sourcePoint" />
            <mxPoint x="530" y="390" as="targetPoint" />
          </mxGeometry>
        </mxCell>
        <mxCell id="zC0u1RPXHcuV_eqlMisw-47" value="observers" style="text;html=1;align=center;verticalAlign=middle;resizable=0;points=[];autosize=1;" parent="WIyWlLk6GJQsqaUBKTNV-1" vertex="1">
          <mxGeometry x="258" y="185" width="70" height="20" as="geometry" />
        </mxCell>
        <mxCell id="zC0u1RPXHcuV_eqlMisw-50" value="" style="endArrow=classic;html=1;exitX=0;exitY=0;exitDx=0;exitDy=0;entryX=1;entryY=0;entryDx=0;entryDy=0;" parent="WIyWlLk6GJQsqaUBKTNV-1" source="zC0u1RPXHcuV_eqlMisw-19" target="zC0u1RPXHcuV_eqlMisw-23" edge="1">
          <mxGeometry width="50" height="50" relative="1" as="geometry">
            <mxPoint x="340" y="350" as="sourcePoint" />
            <mxPoint x="250" y="300" as="targetPoint" />
          </mxGeometry>
        </mxCell>
        <mxCell id="zC0u1RPXHcuV_eqlMisw-51" value="Subject" style="text;html=1;align=center;verticalAlign=middle;resizable=0;points=[];autosize=1;" parent="WIyWlLk6GJQsqaUBKTNV-1" vertex="1">
          <mxGeometry x="255" y="360" width="60" height="20" as="geometry" />
        </mxCell>
        <mxCell id="zC0u1RPXHcuV_eqlMisw-52" value="" style="curved=1;endArrow=classic;html=1;exitX=0.012;exitY=1.028;exitDx=0;exitDy=0;exitPerimeter=0;entryX=1;entryY=0;entryDx=0;entryDy=0;" parent="WIyWlLk6GJQsqaUBKTNV-1" source="zC0u1RPXHcuV_eqlMisw-32" target="zC0u1RPXHcuV_eqlMisw-23" edge="1">
          <mxGeometry width="50" height="50" relative="1" as="geometry">
            <mxPoint x="360" y="440" as="sourcePoint" />
            <mxPoint x="410" y="390" as="targetPoint" />
            <Array as="points">
              <mxPoint x="350" y="540" />
              <mxPoint x="360" y="390" />
            </Array>
          </mxGeometry>
        </mxCell>
        <mxCell id="zC0u1RPXHcuV_eqlMisw-56" value="" style="endArrow=classic;html=1;dashed=1;dashPattern=1 4;exitX=0.5;exitY=0;exitDx=0;exitDy=0;entryX=0.686;entryY=1.115;entryDx=0;entryDy=0;entryPerimeter=0;" parent="WIyWlLk6GJQsqaUBKTNV-1" source="zC0u1RPXHcuV_eqlMisw-23" target="6yFdtxs-iotZIOdewuUa-4" edge="1">
          <mxGeometry width="50" height="50" relative="1" as="geometry">
            <mxPoint x="610" y="380" as="sourcePoint" />
            <mxPoint x="154.98000000000002" y="376.0039999999999" as="targetPoint" />
            <Array as="points" />
          </mxGeometry>
        </mxCell>
        <mxCell id="zC0u1RPXHcuV_eqlMisw-57" value="" style="shape=umlActor;verticalLabelPosition=bottom;verticalAlign=top;html=1;outlineConnect=0;" parent="WIyWlLk6GJQsqaUBKTNV-1" vertex="1">
          <mxGeometry x="370" y="340" width="20" height="30" as="geometry" />
        </mxCell>
        <mxCell id="zC0u1RPXHcuV_eqlMisw-58" value="" style="shape=umlActor;verticalLabelPosition=bottom;verticalAlign=top;html=1;outlineConnect=0;" parent="WIyWlLk6GJQsqaUBKTNV-1" vertex="1">
          <mxGeometry x="650" y="340" width="20" height="30" as="geometry" />
        </mxCell>
        <mxCell id="zC0u1RPXHcuV_eqlMisw-59" value="" style="shape=umlActor;verticalLabelPosition=bottom;verticalAlign=top;html=1;outlineConnect=0;" parent="WIyWlLk6GJQsqaUBKTNV-1" vertex="1">
          <mxGeometry x="63" y="413" width="20" height="30" as="geometry" />
        </mxCell>
        <mxCell id="zC0u1RPXHcuV_eqlMisw-61" value="" style="shape=callout;whiteSpace=wrap;html=1;perimeter=calloutPerimeter;size=20;position=0.33;base=3;" parent="WIyWlLk6GJQsqaUBKTNV-1" vertex="1">
          <mxGeometry x="52" y="383" width="35" height="30" as="geometry" />
        </mxCell>
      </root>
    </mxGraphModel>
  </diagram>
</mxfile>
